# xmcd CD database file
#
# Track frame offsets:
#	150
#	15501
#	37352
#	51086
#	62338
#	84066
#	95498
#	123111
#	142394
#	166099
#	182872
#
# Disc length: 2589 seconds
#
# Revision: 0
# Processed by: cddbd v1.5.2PL0 Copyright (c) Steve Scherf et al.
# Submitted via: CDex 1.51
#
DISCID=8b0a1b0b
DTITLE=Egberto Gismonti - Fantasia
DYEAR=1900
DGENRE=Jazz
TTITLE0=Infância
TTITLE1=Palácio De Espelhos
TTITLE2=Sagração
TTITLE3=Assum
TTITLE4=Fado
TTITLE5=Noite De Lua
TTITLE6=Carnaval De Rua
TTITLE7=O Amor Que Move O Sol E As Outras Estrelas
TTITLE8=2 Violões
TTITLE9=Para John e Paco
TTITLE10=Piano
EXTD=
EXTT0=
EXTT1=
EXTT2=
EXTT3=
EXTT4=
EXTT5=
EXTT6=
EXTT7=
EXTT8=
EXTT9=
EXTT10=
PLAYORDER=
